# xmcd CD database file generated by MAGIX-FreeDB-MP3_Maker_15 v2.0beta1
# 
# Track frame offsets:
#      150
#      23855
#      40252
#      60248
#      86836
#      113245
#      132842
#      154975
#      189941
#      211824
#      232373
#      252226
#      273155
# 
# Disc length: 4151 seconds
# 
# Revision: 0 
# Processed by: cddbd v1.5.2PL0 Copyright (c) Steve Scherf et al.
# Submitted via: MAGIX-FreeDB-MP3_Maker_15 v2.0beta1
# 
DISCID=b010350d
DTITLE=Blues Company - Two Nights Only
DYEAR=2001
DGENRE=
TTITLE0=Blues Company - Blues Is My Middlename
TTITLE1=Blues Company - I've Got The Blues
TTITLE2=Blues Company - Imitation To The Blues
TTITLE3=Blues Company - Rollin' And Tumblin'
TTITLE4=Blues Company - 747
TTITLE5=Blues Company - Good Man Bad
TTITLE6=Blues Company - Bo Diddley's Groove
TTITLE7=Blues Company - I Just Can't Keep From Cryin'
TTITLE8=Blues Company - Don' Do That   She Might Get Mad
TTITLE9=Blues Company - Dinner At Woolfies
TTITLE10=Blues Company - Walkin Blues
TTITLE11=Blues Company - The Blues Is Alright
TTITLE12=Blues Company - (They Called Him) Muddy Waters
EXTD=
EXTT0=
EXTT1=
EXTT2=
EXTT3=
EXTT4=
EXTT5=
EXTT6=
EXTT7=
EXTT8=
EXTT9=
EXTT10=
EXTT11=
EXTT12=
PLAYORDER=
